<?xml version="1.0" encoding="UTF-8"?><svg id="Layer_1" xmlns="http://www.w3.org/2000/svg" xmlns:xlink="http://www.w3.org/1999/xlink" viewBox="0 0 423 60"><defs><style>.cls-1{fill:url(#linear-gradient);}.cls-2{fill:#004159;}</style><linearGradient id="linear-gradient" x1="0" y1="30" x2="102.54" y2="30" gradientUnits="userSpaceOnUse"><stop offset=".2" stop-color="#ff6400"/><stop offset="1" stop-color="#c80000"/></linearGradient></defs><g><path class="cls-2" d="m354.23,34.36c-.9-.58-1.88-1.04-2.93-1.37-1.05-.34-2.05-.64-3.01-.92-.95-.28-1.72-.62-2.28-1.01-.57-.39-.79-.93-.66-1.64.12-.67.52-1.18,1.22-1.53.7-.35,1.63-.53,2.79-.53,1.23,0,2.28.23,3.15.69.2.11.37.27.55.4l1.04-5.82c-1.1-.33-2.29-.55-3.66-.55-1.94,0-3.66.32-5.16.95-1.5.63-2.74,1.53-3.7,2.7-.97,1.16-1.59,2.56-1.88,4.17-.27,1.52-.17,2.75.3,3.7.46.95,1.15,1.7,2.06,2.25.91.55,1.89.98,2.94,1.29,1.05.32,2.06.63,3.01.93.95.3,1.71.66,2.26,1.08.56.42.77,1.02.63,1.8-.13.74-.57,1.31-1.3,1.69-.74.39-1.76.58-3.06.58-1.44,0-2.7-.25-3.75-.76-1.05-.51-1.93-1.28-2.63-2.3l-4.35,3.7c.63.99,1.44,1.82,2.41,2.51.97.69,2.08,1.22,3.32,1.59,1.24.37,2.56.55,3.97.55,2.96,0,5.43-.72,7.41-2.17,1.98-1.44,3.19-3.4,3.62-5.87.27-1.55.18-2.81-.28-3.78-.46-.97-1.15-1.74-2.05-2.32"/><path class="cls-2" d="m244.24,34.36c-.9-.58-1.88-1.04-2.93-1.37-1.05-.34-2.05-.64-3.01-.92-.95-.28-1.72-.62-2.28-1.01-.57-.39-.79-.93-.66-1.64.12-.67.52-1.18,1.22-1.53.7-.35,1.63-.53,2.79-.53,1.23,0,2.28.23,3.15.69.2.11.37.27.55.4l1.04-5.82c-1.1-.33-2.29-.55-3.66-.55-1.94,0-3.66.32-5.16.95-1.5.63-2.73,1.53-3.7,2.7-.97,1.16-1.59,2.56-1.88,4.17-.27,1.52-.17,2.75.3,3.7.46.95,1.15,1.7,2.06,2.25.91.55,1.89.98,2.94,1.29,1.05.32,2.06.63,3.01.93.95.3,1.71.66,2.26,1.08.56.42.77,1.02.63,1.8-.13.74-.57,1.31-1.3,1.69-.74.39-1.76.58-3.06.58-1.44,0-2.7-.25-3.75-.76-1.05-.51-1.93-1.28-2.63-2.3l-4.35,3.7c.63.99,1.44,1.82,2.41,2.51.97.69,2.08,1.22,3.32,1.59,1.24.37,2.56.55,3.97.55,2.96,0,5.43-.72,7.41-2.17,1.98-1.44,3.19-3.4,3.62-5.87.28-1.55.18-2.81-.28-3.78-.46-.97-1.15-1.74-2.05-2.32"/><polygon class="cls-2" points="152.68 17.05 153.66 11.5 120.98 11.5 120 17.05 132.05 17.05 126.51 48.5 132.59 48.5 138.13 17.05 152.68 17.05"/><path class="cls-2" d="m159.02,37.08c-.33,1.87-1.03,3.3-2.11,4.31-1.08,1-2.46,1.51-4.15,1.51-1.09,0-2-.23-2.71-.69s-1.2-1.12-1.45-1.98c-.25-.87-.27-1.91-.05-3.15l2.55-14.48h-5.82l-2.6,14.75c-.39,2.19-.26,4.11.38,5.79.64,1.67,1.71,2.99,3.22,3.94,1.5.95,3.33,1.43,5.49,1.43s4.19-.47,6.01-1.4c1.82-.93,3.35-2.24,4.57-3.91,1.23-1.67,2.04-3.62,2.43-5.84l2.6-14.75h-5.81l-2.55,14.48Z"/><path class="cls-2" d="m271.77,12.87c-1.49-.92-3.5-1.37-6-1.37h-9.88l-.93,5.28h9.73c1.59,0,2.78.41,3.59,1.22.81.81,1.07,2.01.79,3.59-.28,1.58-.96,2.78-2.06,3.59-1.1.81-2.43,1.22-4.02,1.22h-9.73l-.93,5.29h10.62c1.23,0,2.24.26,3.03.79.79.53,1.33,1.23,1.64,2.12.3.88.37,1.83.19,2.85-.27,1.51-1.02,2.85-2.24,4.01-1.23,1.16-2.77,1.74-4.64,1.74h-10.62l-.93,5.29h10.36c2.65,0,4.96-.48,6.95-1.45,1.99-.97,3.58-2.25,4.8-3.83,1.21-1.58,1.99-3.33,2.32-5.23.41-2.32.11-4.35-.88-6.08-.77-1.32-1.99-2.35-3.44-3.22,1.25-.72,2.39-1.52,3.26-2.49,1.34-1.48,2.17-3.19,2.52-5.13.29-1.66.16-3.21-.4-4.65-.56-1.44-1.58-2.62-3.07-3.54"/><path class="cls-2" d="m298.5,35.23c-.26,1.48-.8,2.8-1.62,3.96-.82,1.16-1.84,2.07-3.07,2.72-1.22.65-2.56.98-4,.98s-2.61-.33-3.6-.98c-.99-.65-1.7-1.56-2.11-2.72-.41-1.16-.49-2.48-.23-3.96.26-1.48.8-2.78,1.61-3.91.82-1.13,1.84-2.02,3.07-2.67,1.22-.65,2.54-.98,3.95-.98s2.66.33,3.63.98c.98.65,1.69,1.54,2.12,2.67.43,1.13.52,2.43.26,3.91m1.43-11.42c-1.8-1.16-3.95-1.74-6.46-1.74s-4.81.59-7.02,1.77c-2.22,1.18-4.09,2.76-5.62,4.73-1.53,1.97-2.51,4.19-2.95,6.66-.44,2.47-.24,4.7.59,6.71.82,2.01,2.14,3.61,3.94,4.78,1.8,1.18,3.93,1.77,6.4,1.77s4.86-.59,7.08-1.77c2.22-1.18,4.09-2.77,5.63-4.78,1.53-2.01,2.52-4.25,2.96-6.71.43-2.46.23-4.7-.59-6.69-.83-1.99-2.14-3.57-3.95-4.73"/><path class="cls-2" d="m328.25,35.23c-.26,1.48-.8,2.8-1.63,3.96-.82,1.16-1.84,2.07-3.07,2.72-1.22.65-2.56.98-4,.98s-2.61-.33-3.6-.98c-.99-.65-1.7-1.56-2.11-2.72-.41-1.16-.49-2.48-.23-3.96.26-1.48.8-2.78,1.61-3.91.82-1.13,1.84-2.02,3.06-2.67,1.23-.65,2.54-.98,3.95-.98s2.66.33,3.63.98c.98.65,1.69,1.54,2.12,2.67.43,1.13.52,2.43.26,3.91m1.43-11.42c-1.8-1.16-3.95-1.74-6.46-1.74s-4.81.59-7.02,1.77c-2.22,1.18-4.09,2.76-5.62,4.73-1.53,1.97-2.51,4.19-2.95,6.66-.43,2.47-.24,4.7.59,6.71.82,2.01,2.14,3.61,3.94,4.78,1.8,1.18,3.93,1.77,6.4,1.77s4.86-.59,7.08-1.77c2.22-1.18,4.09-2.77,5.63-4.78,1.53-2.01,2.52-4.25,2.96-6.71.43-2.46.23-4.7-.59-6.69-.83-1.99-2.14-3.57-3.95-4.73"/><polygon class="cls-2" points="377.25 23.13 371.17 23.13 373.04 12.56 367.22 12.56 365.36 23.13 359.28 23.13 358.35 28.41 364.42 28.41 360.88 48.5 366.7 48.5 370.24 28.41 376.32 28.41 377.25 23.13"/><path class="cls-2" d="m421.47,22.6c-2.88,0-5.22,1-7,2.99-.07.08-.11.2-.18.29l.48-2.74h-5.81l-4.47,25.37h5.81l2.49-14.11c.39-2.18,1.2-3.79,2.44-4.81,1.24-1.02,2.67-1.53,4.29-1.53.72,0,1.34.11,1.85.31l1.02-5.66c-.3-.03-.58-.09-.91-.09"/><path class="cls-2" d="m383.33,32.7c.25-.59.54-1.16.89-1.67.8-1.14,1.8-2.03,3.01-2.67,1.2-.64,2.55-.95,4.02-.95s2.55.28,3.42.85c.87.56,1.48,1.37,1.81,2.43.19.59.28,1.27.3,2.01h-13.46Zm14.94-8.99c-1.62-1.09-3.61-1.64-5.97-1.64s-4.74.58-6.94,1.75c-2.2,1.16-4.05,2.74-5.56,4.73-1.51,1.99-2.49,4.24-2.93,6.74-.44,2.5-.25,4.76.58,6.77.82,2.01,2.15,3.59,3.97,4.73,1.82,1.15,4,1.72,6.54,1.72,1.75,0,3.46-.34,5.15-.92l1.08-6c-.5.31-1.02.57-1.58.79-1.19.46-2.43.69-3.74.69-1.52,0-2.8-.33-3.85-.98-1.05-.65-1.78-1.58-2.21-2.77-.2-.57-.31-1.19-.35-1.85h18.92c.2-.53.36-1.01.49-1.45.13-.44.23-.87.31-1.3.43-2.43.29-4.6-.41-6.5-.71-1.9-1.87-3.4-3.49-4.49"/><path class="cls-2" d="m206.5,32.7c.25-.59.54-1.16.89-1.67.8-1.14,1.81-2.03,3.01-2.67,1.2-.64,2.55-.95,4.03-.95s2.55.28,3.42.85c.87.56,1.48,1.37,1.82,2.43.19.59.28,1.27.3,2.01h-13.46Zm14.94-8.99c-1.62-1.09-3.61-1.64-5.97-1.64s-4.74.58-6.94,1.75c-2.2,1.16-4.05,2.74-5.57,4.73-1.51,1.99-2.49,4.24-2.93,6.74-.44,2.5-.25,4.76.58,6.77.82,2.01,2.15,3.59,3.97,4.73,1.82,1.15,4,1.72,6.54,1.72,1.75,0,3.46-.34,5.15-.92l1.07-6c-.5.31-1.02.57-1.57.79-1.19.46-2.44.69-3.74.69-1.52,0-2.8-.33-3.85-.98-1.05-.65-1.78-1.58-2.21-2.77-.2-.57-.31-1.19-.35-1.85h18.92c.2-.53.36-1.01.49-1.45.13-.44.23-.87.31-1.3.43-2.43.29-4.6-.41-6.5-.7-1.9-1.87-3.4-3.49-4.49"/><path class="cls-2" d="m190.84,35.29c-.27,1.51-.81,2.85-1.63,4.02-.82,1.16-1.83,2.07-3.02,2.72-1.19.65-2.49.98-3.9.98s-2.61-.33-3.58-.98c-.98-.65-1.66-1.56-2.06-2.72-.39-1.16-.46-2.5-.19-4.02.27-1.51.8-2.85,1.61-4.02.81-1.16,1.81-2.07,3.02-2.72,1.21-.65,2.52-.98,3.93-.98s2.59.32,3.55.98c.96.65,1.64,1.56,2.06,2.72.41,1.16.48,2.5.22,4.02m1.99-11.44c-1.64-1.18-3.61-1.77-5.9-1.77-1.91,0-3.69.42-5.35,1.24-1.16.58-2.14,1.36-3.04,2.23l2.29-12.99h-5.81l-6.24,35.41h5.81l.51-2.9c.58.85,1.27,1.62,2.21,2.18,1.37.83,3.02,1.24,4.96,1.24,2.29,0,4.46-.58,6.52-1.75,2.05-1.16,3.8-2.74,5.22-4.73,1.42-1.99,2.35-4.22,2.79-6.69.44-2.5.3-4.75-.42-6.74-.72-1.99-1.91-3.58-3.55-4.76"/></g><path class="cls-1" d="m52.41,2.01c-10.99,1.17-18.09,6.89-23.78,9.65,2.93,1.24,4.73-.54,7.31-.31,1.75.16,3.14,1.46,3.14,3.65,0,2.39-1.85,3.83-3.81,3.87-3.51.08-6.98-2.2-10.97-2.08-4.29.13-6.12,2.93-9.98,3.66,2.76,1.11,3.94.37,6.19.17,2.5-.22,4.1,1.73,3.79,3.94-.37,2.66-2.47,3.64-4.84,3.14-2.43-.51-4.43-1.95-7.42-2.28-2.81-.31-6.45.38-12.04,3.81,12.51-.62,13.97,10.61,26.45,6.19,1.25-.44,2.49-.84,3.83-1,2.21-.25,4.31.96,4.61,3.46.3,2.53-1.21,4.52-3.74,4.5-2.22-.02-4.54-1.12-7.28.03,10.25,4.97,14.93,14.05,28.56,15.55-8.69-6.26-14.36-16.46-14.36-27.99,0-11.53,5.66-21.72,14.35-27.98m28.19,1.57c2.98,0,5.84.5,8.51,1.41-4.75-3.15-10.43-4.99-16.57-4.99-8.29,0-15.78,3.35-21.21,8.79-5.43,5.44-8.79,12.92-8.79,21.21,0,.05,0,.1,0,.15.04,6.01,2.48,11.42,6.42,15.36,3.98,3.97,9.45,6.43,15.52,6.43,4.88,0,9.37-1.59,13.01-4.28-1.58.44-3.23.7-4.95.7-10.14,0-18.36-8.22-18.36-18.36,0-14.59,11.83-26.42,26.42-26.42m-15.22,37.16l17.91-10.75-17.91-10.75v21.49Zm-8.95-10.75c-.15-.05-.3-.08-.45-.13.14.1.3.18.45.27v-.14Zm46.12,0c0-6.07-2.45-11.54-6.43-15.51-3.98-3.97-9.45-6.43-15.51-6.43-4.88,0-9.37,1.59-13.01,4.28,1.58-.44,3.23-.7,4.95-.7,10.14,0,18.36,8.22,18.36,18.36,0,14.59-11.83,26.42-26.42,26.42-2.98,0-5.84-.5-8.51-1.41,4.75,3.15,10.43,4.99,16.56,4.99,8.29,0,15.78-3.35,21.21-8.79,5.43-5.44,8.79-12.92,8.79-21.21"/></svg>