<?xml version="1.0" standalone="no"?>
<!DOCTYPE svg PUBLIC "-//W3C//DTD SVG 20010904//EN"
 "http://www.w3.org/TR/2001/REC-SVG-20010904/DTD/svg10.dtd">
<svg version="1.0" xmlns="http://www.w3.org/2000/svg"
 width="1000.000000pt" height="1000.000000pt" viewBox="0 0 1000.000000 1000.000000"
 preserveAspectRatio="xMidYMid meet">

<g transform="translate(0.000000,1000.000000) scale(0.100000,-0.100000)"
fill="#000000" stroke="none">
<path d="M4700 7715 c-69 -7 -141 -18 -160 -24 -19 -5 -62 -15 -95 -22 -72
-14 -240 -68 -310 -99 -72 -33 -200 -106 -258 -149 -70 -51 -195 -170 -223
-211 -13 -19 -40 -55 -59 -80 -51 -67 -141 -254 -166 -344 -40 -149 -1 -256
117 -317 40 -21 82 -27 374 -53 281 -26 318 -10 416 170 129 235 302 355 554
384 159 19 266 2 398 -62 34 -17 91 -78 115 -123 20 -38 21 -53 20 -329 l-1
-289 -31 -31 -31 -31 -319 -6 c-310 -6 -349 -10 -541 -49 -260 -54 -495 -159
-693 -309 -61 -45 -188 -172 -216 -215 -9 -13 -30 -44 -47 -68 -72 -100 -143
-260 -167 -377 -8 -38 -17 -74 -21 -79 -3 -5 -10 -72 -16 -148 -14 -170 -1
-364 31 -479 25 -91 75 -223 94 -245 6 -8 14 -22 17 -31 14 -38 134 -171 205
-226 76 -59 224 -143 251 -143 8 0 26 -6 40 -14 25 -13 77 -28 192 -56 95 -22
181 -29 360 -26 148 2 193 5 224 19 21 9 45 17 53 17 26 0 205 77 293 125 125
70 191 116 321 227 76 63 97 73 145 64 40 -8 63 -32 204 -210 133 -169 187
-203 303 -193 79 7 110 29 331 236 216 202 241 231 256 297 22 99 14 120 -150
374 -51 79 -107 178 -123 220 l-30 75 -3 365 c-2 201 -6 601 -8 890 -2 290 -9
545 -14 570 -6 25 -17 81 -26 125 -29 141 -91 294 -173 423 -37 57 -216 242
-236 242 -5 0 -24 11 -41 24 -39 29 -138 79 -191 96 -22 7 -44 16 -50 20 -5 5
-41 15 -80 24 -38 9 -86 21 -105 27 -121 34 -519 47 -730 24z m735 -2400 c0
-173 -4 -251 -13 -280 -27 -79 -56 -150 -74 -177 -10 -14 -18 -29 -18 -33 0
-8 -65 -89 -101 -124 -87 -87 -233 -174 -344 -206 -67 -19 -196 -22 -269 -5
-64 14 -144 62 -179 108 -55 71 -83 234 -56 321 42 133 72 189 147 279 90 108
259 219 419 277 66 23 271 69 353 78 19 2 58 4 85 3 l50 -1 0 -240z"/>
<path d="M7598 3734 c-2 -1 -39 -5 -83 -8 -89 -6 -239 -31 -258 -43 -7 -4 -14
-8 -17 -8 -22 -3 -128 -44 -184 -73 -110 -55 -164 -113 -118 -126 9 -2 132 -8
272 -11 226 -6 357 -14 470 -31 143 -20 168 -48 150 -166 -6 -40 -13 -82 -15
-93 -3 -11 -9 -48 -15 -83 -5 -35 -17 -91 -26 -125 -8 -34 -24 -100 -35 -147
-10 -47 -22 -94 -26 -105 -4 -11 -6 -24 -5 -29 2 -4 -2 -14 -7 -20 -6 -7 -13
-38 -17 -69 -7 -56 -6 -57 18 -57 53 0 216 210 296 379 19 42 40 87 47 101 7
14 20 57 30 95 9 39 20 75 25 80 4 6 8 17 8 25 0 8 5 40 10 70 18 100 23 272
10 310 -13 35 -58 69 -100 74 -13 1 -30 5 -38 9 -45 19 -380 63 -392 51z"/>
<path d="M1881 3454 c-35 -45 -23 -78 48 -138 25 -21 66 -56 91 -77 48 -41
183 -141 302 -226 62 -43 205 -131 340 -207 131 -74 359 -178 523 -237 44 -16
87 -32 95 -36 8 -3 17 -7 20 -7 3 -1 10 -4 15 -8 9 -6 102 -33 150 -43 11 -3
31 -9 45 -15 14 -5 54 -16 90 -25 36 -8 72 -17 80 -20 32 -10 196 -46 215 -46
11 -1 31 -5 45 -10 33 -12 320 -51 390 -54 30 -1 80 -6 110 -10 66 -10 700
-10 750 0 19 4 67 9 105 11 184 10 622 74 740 108 11 3 65 17 120 31 55 14
105 27 110 29 6 1 37 10 70 20 33 10 67 20 75 23 8 4 17 7 20 8 3 1 12 4 20 8
8 3 33 11 55 17 48 14 169 62 243 96 29 13 55 24 59 24 9 0 239 114 293 146
113 66 273 170 355 232 88 66 90 68 93 113 2 29 -2 50 -10 56 -15 13 -75 19
-98 10 -72 -27 -230 -77 -244 -77 -9 0 -24 -4 -34 -9 -9 -5 -42 -16 -72 -24
-30 -9 -93 -27 -140 -40 -47 -14 -107 -30 -135 -36 -27 -6 -57 -14 -65 -16 -8
-3 -55 -14 -105 -26 -49 -11 -99 -22 -110 -25 -32 -9 -104 -24 -185 -39 -269
-51 -359 -67 -390 -71 -19 -2 -105 -13 -190 -25 -85 -12 -173 -21 -195 -21
-22 1 -51 -3 -65 -8 -25 -9 -119 -15 -410 -29 -281 -14 -693 -3 -905 24 -16 2
-52 6 -80 9 -54 6 -297 44 -330 51 -11 2 -74 15 -140 28 -121 25 -277 63 -305
74 -8 4 -22 8 -30 9 -8 1 -49 12 -90 24 -41 11 -82 22 -90 24 -8 2 -22 6 -30
9 -8 3 -42 14 -75 23 -33 9 -67 20 -75 24 -8 5 -60 23 -115 40 -55 18 -129 43
-165 57 -112 43 -292 114 -309 122 -78 38 -113 53 -158 70 -29 11 -93 41 -142
66 -107 53 -149 58 -180 19z"/>
</g>
</svg>
