<?xml version="1.0" encoding="UTF-8"?>
<svg id="Layer_1" xmlns="http://www.w3.org/2000/svg" xmlns:xlink="http://www.w3.org/1999/xlink" viewBox="0 0 380 60"><defs><style>.cls-1{fill:url(#linear-gradient);}.cls-2{fill:#fff;}</style><linearGradient id="linear-gradient" x1="0" y1="30" x2="102.54" y2="30" gradientUnits="userSpaceOnUse"><stop offset=".2" stop-color="#ff6400"/><stop offset="1" stop-color="#c80000"/></linearGradient></defs><path class="cls-1" d="m52.41,2.01c-10.99,1.17-18.09,6.89-23.78,9.65,2.93,1.24,4.73-.54,7.31-.31,1.75.16,3.14,1.46,3.14,3.65,0,2.39-1.85,3.83-3.81,3.87-3.51.08-6.98-2.2-10.97-2.08-4.29.13-6.12,2.93-9.98,3.66,2.76,1.11,3.94.37,6.19.17,2.5-.22,4.1,1.73,3.79,3.94-.37,2.66-2.47,3.64-4.84,3.14-2.43-.51-4.43-1.95-7.42-2.28-2.81-.31-6.45.38-12.04,3.81,12.51-.62,13.97,10.61,26.45,6.19,1.25-.44,2.49-.84,3.83-1,2.21-.25,4.31.96,4.61,3.46.3,2.53-1.21,4.52-3.74,4.5-2.22-.02-4.54-1.12-7.28.03,10.25,4.97,14.93,14.05,28.56,15.55-8.69-6.26-14.36-16.46-14.36-27.99,0-11.53,5.66-21.72,14.35-27.98m28.19,1.57c2.98,0,5.84.5,8.51,1.41-4.75-3.15-10.43-4.99-16.57-4.99-8.29,0-15.78,3.35-21.21,8.79-5.43,5.44-8.79,12.92-8.79,21.21,0,.05,0,.1,0,.15.04,6.01,2.48,11.42,6.42,15.36,3.98,3.97,9.45,6.43,15.52,6.43,4.88,0,9.37-1.59,13.01-4.28-1.58.44-3.23.7-4.95.7-10.14,0-18.36-8.22-18.36-18.36,0-14.59,11.83-26.42,26.42-26.42m-15.22,37.16l17.91-10.75-17.91-10.75v21.49Zm-8.95-10.75c-.15-.05-.3-.08-.45-.13.14.1.3.18.45.27v-.14Zm46.12,0c0-6.07-2.45-11.54-6.43-15.51-3.98-3.97-9.45-6.43-15.51-6.43-4.88,0-9.37,1.59-13.01,4.28,1.58-.44,3.23-.7,4.95-.7,10.14,0,18.36,8.22,18.36,18.36,0,14.59-11.83,26.42-26.42,26.42-2.98,0-5.84-.5-8.51-1.41,4.75,3.15,10.43,4.99,16.56,4.99,8.29,0,15.78-3.35,21.21-8.79,5.43-5.44,8.79-12.92,8.79-21.21"/><g><path class="cls-2" d="m236.07,11.98c-1.88-2.22-4.22-3.94-7.04-5.16-2.82-1.22-6.02-1.83-9.6-1.83h-17.91l-8.69,49.28h18.05c3.53,0,6.93-.62,10.18-1.86,3.25-1.24,6.2-2.97,8.83-5.19,2.64-2.22,4.84-4.84,6.61-7.84,1.77-3.01,2.97-6.26,3.58-9.74.63-3.58.59-6.86-.13-9.85-.72-2.98-2.01-5.59-3.89-7.81Zm-1.49,17.59c-.68,3.87-2.11,7.3-4.28,10.28-2.17,2.99-4.89,5.33-8.15,7.02-3.26,1.69-6.82,2.54-10.69,2.54h-12.46l6.97-39.54h12.46c3.82,0,7.06.84,9.73,2.51,2.67,1.67,4.57,4,5.72,6.98,1.14,2.98,1.38,6.39.71,10.21Z"/><path class="cls-2" d="m273.56,21.98c-2.12-1.38-4.73-2.08-7.84-2.08s-6.32.76-9.21,2.29c-2.9,1.53-5.33,3.62-7.3,6.27s-3.25,5.62-3.83,8.92c-.59,3.34-.34,6.35.74,9.03,1.08,2.68,2.82,4.78,5.23,6.3,2.4,1.53,5.28,2.29,8.62,2.29,2.68,0,5.27-.5,7.79-1.5,2.52-1,4.73-2.46,6.64-4.37l-2.71-3.3c-1.46,1.48-3.11,2.59-4.96,3.33-1.85.74-3.78,1.11-5.78,1.11-2.53,0-4.67-.55-6.41-1.65-1.74-1.1-2.98-2.63-3.71-4.58-.53-1.41-.73-2.99-.64-4.73h27.59c.26-.67.46-1.25.6-1.75s.24-.94.31-1.33c.56-3.2.38-6.03-.54-8.49-.93-2.46-2.45-4.38-4.57-5.77Zm-15.39,4.19c2-1.07,4.22-1.61,6.66-1.61,2.29,0,4.17.5,5.64,1.5,1.47,1,2.49,2.4,3.06,4.19.44,1.39.56,2.98.37,4.76h-22.93c.5-1.62,1.21-3.09,2.16-4.41,1.36-1.89,3.04-3.37,5.05-4.44Z"/><path class="cls-2" d="m334.04,21.48c-1.75-1.05-3.82-1.58-6.21-1.58s-4.67.53-6.83,1.58c-2.17,1.05-4.03,2.53-5.58,4.44-.18.22-.33.46-.5.69-.07-.23-.13-.47-.22-.69-.79-1.91-2.03-3.39-3.73-4.44-1.7-1.05-3.75-1.58-6.13-1.58s-4.71.53-6.83,1.58c-1.79.89-3.35,2.11-4.69,3.61l.79-4.47h-5.09l-5.94,33.67h5.09l3.65-20.7h0c.32-1.81,1.02-3.39,2.09-4.73,1.07-1.34,2.38-2.37,3.92-3.12,1.54-.74,3.17-1.11,4.89-1.11,2.53,0,4.49.81,5.87,2.44,1.38,1.62,1.83,3.82,1.35,6.59l-3.64,20.63h5.09l3.65-20.7c.32-1.81,1.01-3.39,2.09-4.72,1.07-1.34,2.38-2.37,3.92-3.12,1.54-.74,3.15-1.11,4.82-1.11,2.53,0,4.49.81,5.87,2.44,1.39,1.62,1.83,3.82,1.35,6.59l-3.64,20.63h5.09l3.8-21.56c.46-2.63.3-4.9-.48-6.81s-2.05-3.39-3.8-4.44Z"/><path class="cls-2" d="m378.94,28.46c-1.09-2.65-2.82-4.74-5.2-6.27s-5.19-2.29-8.44-2.29-6.39.78-9.29,2.33c-2.9,1.55-5.36,3.64-7.37,6.27-2.02,2.63-3.31,5.56-3.88,8.81-.58,3.3-.33,6.28.75,8.95,1.08,2.68,2.79,4.8,5.14,6.37,2.35,1.58,5.17,2.36,8.47,2.36s6.34-.79,9.26-2.36c2.93-1.58,5.4-3.69,7.42-6.34,2.02-2.65,3.32-5.65,3.91-8.99.57-3.25.31-6.2-.77-8.85Zm-4.46,8.85c-.43,2.44-1.34,4.63-2.74,6.59-1.4,1.96-3.12,3.49-5.18,4.58-2.06,1.1-4.25,1.65-6.59,1.65s-4.35-.55-6.01-1.65c-1.67-1.1-2.86-2.61-3.57-4.55-.71-1.93-.85-4.14-.41-6.63.42-2.39,1.32-4.52,2.71-6.41,1.38-1.89,3.1-3.38,5.16-4.48s4.25-1.65,6.59-1.65,4.33.55,5.98,1.65c1.64,1.1,2.84,2.59,3.58,4.48s.9,4.02.48,6.41Z"/></g><polygon class="cls-2" points="154.16 12.5 155.48 5 120.51 5 119.19 12.5 135.48 12.5 127.99 55 136.2 55 143.69 12.5 154.16 12.5"/><path class="cls-2" d="m182.66,6.86c-2.02-1.24-4.72-1.86-8.1-1.86h-13.36l-1.26,7.14h13.14c2.14,0,3.76.55,4.85,1.64,1.09,1.1,1.45,2.71,1.07,4.86-.38,2.14-1.3,3.76-2.78,4.86-1.48,1.1-3.29,1.64-5.43,1.64h-13.14l-1.26,7.14h14.36c1.66,0,3.03.36,4.09,1.07,1.07.71,1.8,1.67,2.21,2.86.41,1.19.49,2.48.25,3.86-.36,2.04-1.37,3.86-3.03,5.43-1.66,1.57-3.75,2.36-6.27,2.36h-14.36l-1.26,7.14h14c3.58,0,6.7-.65,9.39-1.96,2.68-1.31,4.84-3.04,6.48-5.18,1.64-2.14,2.69-4.5,3.14-7.07.55-3.14.15-5.88-1.2-8.21-1.04-1.79-2.68-3.18-4.64-4.36,1.69-.98,3.22-2.06,4.4-3.36,1.8-2,2.94-4.31,3.4-6.93.4-2.24.21-4.33-.54-6.29-.75-1.95-2.14-3.55-4.15-4.78"/></svg>