<?xml version="1.0" encoding="UTF-8" standalone="no"?>
<!DOCTYPE svg PUBLIC "-//W3C//DTD SVG 20010904//EN" "http://www.w3.org/TR/2001/REC-SVG-20010904/DTD/svg10.dtd">
<svg version="1.0" xmlns="http://www.w3.org/2000/svg" width="1000.000000pt" height="1000.000000pt" viewBox="0 0 1000.000000 1000.000000" preserveAspectRatio="xMidYMid meet">

<g transform="translate(0.000000,1000.000000) scale(0.100000,-0.100000)" fill="#000000" stroke="none">
<path d="M7030 7194 c-196 -8 -289 -17 -324 -28 -27 -9 -65 -16 -85 -16 -20 -1 -54 -8 -76 -16 -22 -9 -60 -20 -85 -26 -25 -5 -63 -18 -86 -29 -22 -10 -50 -19 -61 -19 -20 0 -101 -38 -158 -74 -111 -71 -136 -89 -180 -131 -28 -25 -62 -52 -77 -60 -15 -8 -29 -23 -32 -33 -3 -9 -19 -32 -35 -49 -26 -29 -33 -31 -58 -23 -15 6 -44 24 -63 41 -32 28 -62 50 -130 96 -14 9 -50 33 -80 53 -30 21 -71 45 -90 54 -19 9 -62 30 -95 47 -126 66 -155 79 -177 79 -13 0 -39 9 -59 19 -20 11 -54 23 -75 27 -22 4 -55 15 -74 25 -19 11 -49 19 -67 19 -18 0 -56 10 -85 22 -52 22 -63 22 -448 22 -382 0 -397 -1 -454 -22 -33 -12 -73 -22 -89 -22 -16 0 -44 -8 -61 -19 -17 -10 -50 -21 -74 -25 -24 -4 -53 -13 -65 -20 -12 -8 -38 -17 -57 -21 -35 -6 -232 -98 -260 -121 -8 -6 -26 -15 -40 -19 -14 -4 -38 -19 -54 -32 -16 -13 -45 -33 -65 -44 -20 -10 -56 -35 -81 -54 -25 -19 -55 -39 -67 -45 -35 -15 -364 -348 -400 -405 -18 -27 -42 -63 -53 -80 -67 -97 -106 -163 -163 -281 -21 -44 -47 -95 -57 -115 -11 -20 -20 -47 -20 -61 0 -13 -9 -40 -20 -61 -11 -20 -20 -43 -20 -51 0 -8 -11 -52 -25 -98 -14 -46 -35 -112 -46 -148 -39 -128 -36 -818 4 -896 8 -16 18 -49 22 -73 4 -24 16 -62 26 -85 10 -23 19 -53 19 -69 0 -15 9 -44 20 -64 11 -21 20 -46 20 -57 0 -18 38 -111 60 -146 5 -8 18 -34 29 -56 10 -23 24 -45 30 -48 6 -4 11 -15 11 -25 0 -10 20 -44 45 -75 25 -32 45 -65 45 -72 0 -8 8 -22 18 -32 11 -11 34 -41 52 -68 84 -124 343 -381 458 -454 28 -18 52 -37 52 -41 0 -4 12 -11 28 -17 15 -5 48 -26 75 -46 26 -20 50 -36 54 -36 12 0 218 -104 242 -122 13 -10 38 -18 55 -18 17 0 47 -8 66 -19 19 -10 59 -23 88 -30 29 -6 69 -18 88 -26 20 -8 46 -15 58 -15 12 0 49 -10 81 -22 58 -21 74 -22 430 -22 358 0 372 1 425 22 30 12 69 22 85 22 17 0 49 9 71 19 23 10 56 22 74 26 18 4 51 16 74 26 22 10 55 19 72 19 17 0 42 8 55 19 27 20 191 104 228 116 13 4 46 25 75 46 28 21 54 39 58 39 10 0 87 57 167 122 131 110 350 340 400 423 10 17 25 36 34 44 10 7 17 19 17 26 0 7 18 37 40 66 22 30 40 58 40 64 0 5 23 56 51 111 54 109 71 124 139 124 81 0 339 60 475 111 28 10 66 22 85 25 19 4 46 15 60 24 14 10 74 42 133 73 59 31 148 85 197 121 100 75 295 276 352 363 21 32 51 77 68 100 17 24 33 51 36 60 4 10 23 54 44 98 78 166 89 191 96 230 4 22 15 64 26 93 19 51 18 90 -1 78 -18 -11 -308 -48 -446 -57 -153 -9 -387 -3 -450 13 -22 6 -82 14 -133 18 -99 9 -122 19 -122 55 0 38 34 58 113 64 44 4 82 13 97 24 13 9 38 17 55 17 16 0 43 7 59 15 48 25 199 75 227 75 14 0 38 9 52 20 14 11 29 20 34 20 4 0 53 23 108 50 55 28 103 50 106 50 4 0 29 15 57 33 27 17 73 46 102 62 133 77 357 266 458 387 83 99 183 238 194 269 5 16 13 29 17 29 3 0 30 46 58 103 67 131 165 407 151 425 -14 16 -1332 14 -1718 -4z m-2518 -1514 c141 -54 201 -92 299 -190 101 -100 136 -156 189 -310 45 -129 34 -288 -30 -424 -16 -36 -30 -69 -30 -74 0 -30 -123 -168 -205 -229 -57 -43 -174 -103 -200 -103 -7 0 -32 -9 -56 -20 -92 -42 -316 -20 -415 41 -17 10 -37 19 -44 19 -20 0 -110 64 -165 117 -74 71 -118 130 -153 203 -58 122 -72 180 -72 295 0 112 14 169 67 285 29 64 112 190 124 190 5 0 23 16 41 36 35 39 127 104 147 104 6 0 23 8 37 17 14 9 53 26 87 39 88 32 301 34 379 4z"/>
</g>
</svg>